<svg xmlns="http://www.w3.org/2000/svg" xmlns:xlink="http://www.w3.org/1999/xlink" width="500" zoomAndPan="magnify" viewBox="0 0 375 374.999991" height="500" preserveAspectRatio="xMidYMid meet" version="1.0"><defs><g/></defs><g fill="#a2a2a2" fill-opacity="0.302"><g transform="translate(9.013546, 323.269282)"><g><path d="M 137.164062 3.808594 C 167.261719 3.808594 205.363281 -6.476562 228.984375 -26.671875 C 214.507812 -20.574219 200.410156 -17.527344 184.789062 -17.527344 C 109.730469 -17.527344 45.339844 -85.726562 45.339844 -165.359375 C 45.339844 -196.601562 56.390625 -223.652344 85.726562 -249.5625 C 91.0625 -250.324219 96.777344 -250.324219 102.109375 -250.324219 C 154.691406 -250.324219 196.601562 -220.222656 219.460938 -178.691406 C 224.414062 -190.125 226.699219 -201.171875 226.699219 -210.699219 C 226.699219 -248.796875 192.027344 -269.371094 149.355469 -269.371094 C 73.914062 -269.371094 11.429688 -217.554688 11.429688 -140.59375 C 11.429688 -66.296875 66.296875 3.808594 137.164062 3.808594 Z M 137.164062 3.808594 "/></g></g></g><g fill="#a2a2a2" fill-opacity="0.502"><g transform="translate(6.319354, 320.57509)"><g><path d="M 137.164062 3.808594 C 167.261719 3.808594 205.363281 -6.476562 228.984375 -26.671875 C 214.507812 -20.574219 200.410156 -17.527344 184.789062 -17.527344 C 109.730469 -17.527344 45.339844 -85.726562 45.339844 -165.359375 C 45.339844 -196.601562 56.390625 -223.652344 85.726562 -249.5625 C 91.0625 -250.324219 96.777344 -250.324219 102.109375 -250.324219 C 154.691406 -250.324219 196.601562 -220.222656 219.460938 -178.691406 C 224.414062 -190.125 226.699219 -201.171875 226.699219 -210.699219 C 226.699219 -248.796875 192.027344 -269.371094 149.355469 -269.371094 C 73.914062 -269.371094 11.429688 -217.554688 11.429688 -140.59375 C 11.429688 -66.296875 66.296875 3.808594 137.164062 3.808594 Z M 137.164062 3.808594 "/></g></g></g><g fill="#f8f8f8" fill-opacity="1"><g transform="translate(3.625162, 317.880898)"><g><path d="M 137.164062 3.808594 C 167.261719 3.808594 205.363281 -6.476562 228.984375 -26.671875 C 214.507812 -20.574219 200.410156 -17.527344 184.789062 -17.527344 C 109.730469 -17.527344 45.339844 -85.726562 45.339844 -165.359375 C 45.339844 -196.601562 56.390625 -223.652344 85.726562 -249.5625 C 91.0625 -250.324219 96.777344 -250.324219 102.109375 -250.324219 C 154.691406 -250.324219 196.601562 -220.222656 219.460938 -178.691406 C 224.414062 -190.125 226.699219 -201.171875 226.699219 -210.699219 C 226.699219 -248.796875 192.027344 -269.371094 149.355469 -269.371094 C 73.914062 -269.371094 11.429688 -217.554688 11.429688 -140.59375 C 11.429688 -66.296875 66.296875 3.808594 137.164062 3.808594 Z M 137.164062 3.808594 "/></g></g></g><g fill="#a2a2a2" fill-opacity="0.302"><g transform="translate(151.815804, 324.251154)"><g><path d="M 105.664062 -50.734375 C 81.25 -128.171875 54.929688 -212.09375 7.246094 -277.324219 C 16.785156 -188.824219 52.261719 -77.054688 105.664062 11.445312 C 159.070312 -77.054688 194.164062 -188.824219 203.703125 -277.324219 C 156.019531 -212.09375 129.699219 -128.171875 105.664062 -50.734375 Z M 105.664062 -50.734375 "/></g></g></g><g fill="#a2a2a2" fill-opacity="0.502"><g transform="translate(149.11839, 321.553739)"><g><path d="M 105.664062 -50.734375 C 81.25 -128.171875 54.929688 -212.09375 7.246094 -277.324219 C 16.785156 -188.824219 52.261719 -77.054688 105.664062 11.445312 C 159.070312 -77.054688 194.164062 -188.824219 203.703125 -277.324219 C 156.019531 -212.09375 129.699219 -128.171875 105.664062 -50.734375 Z M 105.664062 -50.734375 "/></g></g></g><g fill="#f8f8f8" fill-opacity="1"><g transform="translate(146.420976, 318.856326)"><g><path d="M 105.664062 -50.734375 C 81.25 -128.171875 54.929688 -212.09375 7.246094 -277.324219 C 16.785156 -188.824219 52.261719 -77.054688 105.664062 11.445312 C 159.070312 -77.054688 194.164062 -188.824219 203.703125 -277.324219 C 156.019531 -212.09375 129.699219 -128.171875 105.664062 -50.734375 Z M 105.664062 -50.734375 "/></g></g></g><g fill="#f8f8f8" fill-opacity="0.302"><g transform="translate(143.941656, 366.292602)"><g><path d="M 18.316406 -5.449219 L 16.300781 -5.449219 C 15.671875 -4.296875 14.804688 -3.355469 13.707031 -2.671875 C 12.605469 -1.964844 11.371094 -1.625 10.0625 -1.625 C 8.097656 -1.625 6.421875 -2.332031 5.03125 -3.800781 C 3.667969 -5.1875 3.011719 -6.890625 3.011719 -8.882812 C 3.011719 -10.875 3.667969 -12.578125 5.03125 -13.992188 C 5.660156 -14.648438 6.421875 -15.171875 7.285156 -15.566406 C 8.125 -15.957031 8.960938 -16.167969 9.800781 -16.167969 C 10.613281 -16.167969 11.320312 -16.0625 11.949219 -15.878906 C 13.863281 -15.304688 15.304688 -14.152344 16.273438 -12.394531 L 18.292969 -12.394531 C 17.609375 -14.070312 16.535156 -15.433594 15.042969 -16.484375 C 13.523438 -17.53125 11.871094 -18.054688 10.0625 -18.054688 C 7.574219 -18.054688 5.476562 -17.136719 3.746094 -15.328125 C 2.933594 -14.492188 2.304688 -13.496094 1.859375 -12.394531 C 1.390625 -11.292969 1.179688 -10.113281 1.179688 -8.882812 C 1.179688 -6.367188 2.019531 -4.246094 3.746094 -2.464844 C 5.476562 -0.628906 7.574219 0.261719 10.0625 0.261719 C 11.871094 0.261719 13.523438 -0.261719 15.066406 -1.308594 C 16.5625 -2.359375 17.636719 -3.722656 18.316406 -5.449219 Z M 18.316406 -5.449219 "/></g></g></g><g fill="#f8f8f8" fill-opacity="0.302"><g transform="translate(169.413615, 366.292602)"><g><path d="M 17.664062 -8.960938 C 17.664062 -6.917969 16.929688 -5.1875 15.511719 -3.773438 C 14.070312 -2.332031 12.34375 -1.625 10.324219 -1.625 C 8.308594 -1.625 6.578125 -2.332031 5.164062 -3.773438 C 3.722656 -5.1875 3.011719 -6.917969 3.011719 -8.960938 C 3.011719 -10.953125 3.722656 -12.683594 5.164062 -14.125 C 6.578125 -15.539062 8.308594 -16.273438 10.324219 -16.273438 C 12.34375 -16.273438 14.070312 -15.539062 15.511719 -14.125 C 16.929688 -12.683594 17.664062 -10.953125 17.664062 -8.960938 Z M 19.496094 -8.960938 C 19.496094 -10.21875 19.234375 -11.398438 18.761719 -12.527344 C 18.292969 -13.625 17.636719 -14.597656 16.796875 -15.433594 C 15.957031 -16.246094 14.988281 -16.902344 13.886719 -17.375 C 12.761719 -17.84375 11.582031 -18.109375 10.324219 -18.109375 C 9.066406 -18.109375 7.863281 -17.84375 6.761719 -17.375 C 5.660156 -16.902344 4.691406 -16.246094 3.851562 -15.433594 C 3.011719 -14.597656 2.359375 -13.625 1.886719 -12.527344 C 1.414062 -11.398438 1.179688 -10.21875 1.179688 -8.960938 C 1.179688 -7.703125 1.414062 -6.5 1.886719 -5.398438 C 2.359375 -4.269531 3.011719 -3.300781 3.851562 -2.464844 C 4.691406 -1.625 5.660156 -0.96875 6.761719 -0.496094 C 7.863281 -0.0273438 9.066406 0.210938 10.324219 0.210938 C 11.582031 0.210938 12.761719 -0.0273438 13.886719 -0.496094 C 14.988281 -0.96875 15.957031 -1.625 16.796875 -2.464844 C 17.636719 -3.300781 18.292969 -4.269531 18.761719 -5.398438 C 19.234375 -6.5 19.496094 -7.703125 19.496094 -8.960938 Z M 19.496094 -8.960938 "/></g></g></g><g fill="#f8f8f8" fill-opacity="0.302"><g transform="translate(196.457871, 366.292602)"><g><path d="M 8.359375 1.074219 L 16.429688 -17.820312 L 14.4375 -17.820312 L 8.359375 -3.460938 L 2.253906 -17.820312 L 0.261719 -17.820312 Z M 8.359375 1.074219 "/></g></g></g><g fill="#f8f8f8" fill-opacity="0.302"><g transform="translate(219.518984, 366.292602)"><g><path d="M 4.847656 -6.550781 L 8.097656 -14.753906 L 11.320312 -6.550781 Z M 15.90625 0 L 8.097656 -19.050781 L 0.261719 0 L 2.253906 0 L 4.167969 -4.847656 L 12 -4.847656 L 13.914062 0 Z M 15.90625 0 "/></g></g></g><g fill="#f8f8f8" fill-opacity="0.502"><g transform="translate(142.783397, 365.13435)"><g><path d="M 18.316406 -5.449219 L 16.300781 -5.449219 C 15.671875 -4.296875 14.804688 -3.355469 13.707031 -2.671875 C 12.605469 -1.964844 11.371094 -1.625 10.0625 -1.625 C 8.097656 -1.625 6.421875 -2.332031 5.03125 -3.800781 C 3.667969 -5.1875 3.011719 -6.890625 3.011719 -8.882812 C 3.011719 -10.875 3.667969 -12.578125 5.03125 -13.992188 C 5.660156 -14.648438 6.421875 -15.171875 7.285156 -15.566406 C 8.125 -15.957031 8.960938 -16.167969 9.800781 -16.167969 C 10.613281 -16.167969 11.320312 -16.0625 11.949219 -15.878906 C 13.863281 -15.304688 15.304688 -14.152344 16.273438 -12.394531 L 18.292969 -12.394531 C 17.609375 -14.070312 16.535156 -15.433594 15.042969 -16.484375 C 13.523438 -17.53125 11.871094 -18.054688 10.0625 -18.054688 C 7.574219 -18.054688 5.476562 -17.136719 3.746094 -15.328125 C 2.933594 -14.492188 2.304688 -13.496094 1.859375 -12.394531 C 1.390625 -11.292969 1.179688 -10.113281 1.179688 -8.882812 C 1.179688 -6.367188 2.019531 -4.246094 3.746094 -2.464844 C 5.476562 -0.628906 7.574219 0.261719 10.0625 0.261719 C 11.871094 0.261719 13.523438 -0.261719 15.066406 -1.308594 C 16.5625 -2.359375 17.636719 -3.722656 18.316406 -5.449219 Z M 18.316406 -5.449219 "/></g></g></g><g fill="#f8f8f8" fill-opacity="0.502"><g transform="translate(168.255356, 365.13435)"><g><path d="M 17.664062 -8.960938 C 17.664062 -6.917969 16.929688 -5.1875 15.511719 -3.773438 C 14.070312 -2.332031 12.34375 -1.625 10.324219 -1.625 C 8.308594 -1.625 6.578125 -2.332031 5.164062 -3.773438 C 3.722656 -5.1875 3.011719 -6.917969 3.011719 -8.960938 C 3.011719 -10.953125 3.722656 -12.683594 5.164062 -14.125 C 6.578125 -15.539062 8.308594 -16.273438 10.324219 -16.273438 C 12.34375 -16.273438 14.070312 -15.539062 15.511719 -14.125 C 16.929688 -12.683594 17.664062 -10.953125 17.664062 -8.960938 Z M 19.496094 -8.960938 C 19.496094 -10.21875 19.234375 -11.398438 18.761719 -12.527344 C 18.292969 -13.625 17.636719 -14.597656 16.796875 -15.433594 C 15.957031 -16.246094 14.988281 -16.902344 13.886719 -17.375 C 12.761719 -17.84375 11.582031 -18.109375 10.324219 -18.109375 C 9.066406 -18.109375 7.863281 -17.84375 6.761719 -17.375 C 5.660156 -16.902344 4.691406 -16.246094 3.851562 -15.433594 C 3.011719 -14.597656 2.359375 -13.625 1.886719 -12.527344 C 1.414062 -11.398438 1.179688 -10.21875 1.179688 -8.960938 C 1.179688 -7.703125 1.414062 -6.5 1.886719 -5.398438 C 2.359375 -4.269531 3.011719 -3.300781 3.851562 -2.464844 C 4.691406 -1.625 5.660156 -0.96875 6.761719 -0.496094 C 7.863281 -0.0273438 9.066406 0.210938 10.324219 0.210938 C 11.582031 0.210938 12.761719 -0.0273438 13.886719 -0.496094 C 14.988281 -0.96875 15.957031 -1.625 16.796875 -2.464844 C 17.636719 -3.300781 18.292969 -4.269531 18.761719 -5.398438 C 19.234375 -6.5 19.496094 -7.703125 19.496094 -8.960938 Z M 19.496094 -8.960938 "/></g></g></g><g fill="#f8f8f8" fill-opacity="0.502"><g transform="translate(195.299612, 365.13435)"><g><path d="M 8.359375 1.074219 L 16.429688 -17.820312 L 14.4375 -17.820312 L 8.359375 -3.460938 L 2.253906 -17.820312 L 0.261719 -17.820312 Z M 8.359375 1.074219 "/></g></g></g><g fill="#f8f8f8" fill-opacity="0.502"><g transform="translate(218.360725, 365.13435)"><g><path d="M 4.847656 -6.550781 L 8.097656 -14.753906 L 11.320312 -6.550781 Z M 15.90625 0 L 8.097656 -19.050781 L 0.261719 0 L 2.253906 0 L 4.167969 -4.847656 L 12 -4.847656 L 13.914062 0 Z M 15.90625 0 "/></g></g></g><g fill="#f8f8f8" fill-opacity="1"><g transform="translate(141.625138, 363.976098)"><g><path d="M 18.316406 -5.449219 L 16.300781 -5.449219 C 15.671875 -4.296875 14.804688 -3.355469 13.707031 -2.671875 C 12.605469 -1.964844 11.371094 -1.625 10.0625 -1.625 C 8.097656 -1.625 6.421875 -2.332031 5.03125 -3.800781 C 3.667969 -5.1875 3.011719 -6.890625 3.011719 -8.882812 C 3.011719 -10.875 3.667969 -12.578125 5.03125 -13.992188 C 5.660156 -14.648438 6.421875 -15.171875 7.285156 -15.566406 C 8.125 -15.957031 8.960938 -16.167969 9.800781 -16.167969 C 10.613281 -16.167969 11.320312 -16.0625 11.949219 -15.878906 C 13.863281 -15.304688 15.304688 -14.152344 16.273438 -12.394531 L 18.292969 -12.394531 C 17.609375 -14.070312 16.535156 -15.433594 15.042969 -16.484375 C 13.523438 -17.53125 11.871094 -18.054688 10.0625 -18.054688 C 7.574219 -18.054688 5.476562 -17.136719 3.746094 -15.328125 C 2.933594 -14.492188 2.304688 -13.496094 1.859375 -12.394531 C 1.390625 -11.292969 1.179688 -10.113281 1.179688 -8.882812 C 1.179688 -6.367188 2.019531 -4.246094 3.746094 -2.464844 C 5.476562 -0.628906 7.574219 0.261719 10.0625 0.261719 C 11.871094 0.261719 13.523438 -0.261719 15.066406 -1.308594 C 16.5625 -2.359375 17.636719 -3.722656 18.316406 -5.449219 Z M 18.316406 -5.449219 "/></g></g></g><g fill="#f8f8f8" fill-opacity="1"><g transform="translate(167.097097, 363.976098)"><g><path d="M 17.664062 -8.960938 C 17.664062 -6.917969 16.929688 -5.1875 15.511719 -3.773438 C 14.070312 -2.332031 12.34375 -1.625 10.324219 -1.625 C 8.308594 -1.625 6.578125 -2.332031 5.164062 -3.773438 C 3.722656 -5.1875 3.011719 -6.917969 3.011719 -8.960938 C 3.011719 -10.953125 3.722656 -12.683594 5.164062 -14.125 C 6.578125 -15.539062 8.308594 -16.273438 10.324219 -16.273438 C 12.34375 -16.273438 14.070312 -15.539062 15.511719 -14.125 C 16.929688 -12.683594 17.664062 -10.953125 17.664062 -8.960938 Z M 19.496094 -8.960938 C 19.496094 -10.21875 19.234375 -11.398438 18.761719 -12.527344 C 18.292969 -13.625 17.636719 -14.597656 16.796875 -15.433594 C 15.957031 -16.246094 14.988281 -16.902344 13.886719 -17.375 C 12.761719 -17.84375 11.582031 -18.109375 10.324219 -18.109375 C 9.066406 -18.109375 7.863281 -17.84375 6.761719 -17.375 C 5.660156 -16.902344 4.691406 -16.246094 3.851562 -15.433594 C 3.011719 -14.597656 2.359375 -13.625 1.886719 -12.527344 C 1.414062 -11.398438 1.179688 -10.21875 1.179688 -8.960938 C 1.179688 -7.703125 1.414062 -6.5 1.886719 -5.398438 C 2.359375 -4.269531 3.011719 -3.300781 3.851562 -2.464844 C 4.691406 -1.625 5.660156 -0.96875 6.761719 -0.496094 C 7.863281 -0.0273438 9.066406 0.210938 10.324219 0.210938 C 11.582031 0.210938 12.761719 -0.0273438 13.886719 -0.496094 C 14.988281 -0.96875 15.957031 -1.625 16.796875 -2.464844 C 17.636719 -3.300781 18.292969 -4.269531 18.761719 -5.398438 C 19.234375 -6.5 19.496094 -7.703125 19.496094 -8.960938 Z M 19.496094 -8.960938 "/></g></g></g><g fill="#f8f8f8" fill-opacity="1"><g transform="translate(194.141353, 363.976098)"><g><path d="M 8.359375 1.074219 L 16.429688 -17.820312 L 14.4375 -17.820312 L 8.359375 -3.460938 L 2.253906 -17.820312 L 0.261719 -17.820312 Z M 8.359375 1.074219 "/></g></g></g><g fill="#f8f8f8" fill-opacity="1"><g transform="translate(217.202466, 363.976098)"><g><path d="M 4.847656 -6.550781 L 8.097656 -14.753906 L 11.320312 -6.550781 Z M 15.90625 0 L 8.097656 -19.050781 L 0.261719 0 L 2.253906 0 L 4.167969 -4.847656 L 12 -4.847656 L 13.914062 0 Z M 15.90625 0 "/></g></g></g></svg>