<svg xmlns="http://www.w3.org/2000/svg" xmlns:xlink="http://www.w3.org/1999/xlink" width="1920" zoomAndPan="magnify" viewBox="0 0 1440 809.999993" height="1080" preserveAspectRatio="xMidYMid meet" version="1.0"><defs><g/></defs><g fill="#ffffff" fill-opacity="1"><g transform="translate(474.231824, 450.534244)"><g><path d="M 71.230469 1.980469 C 86.863281 1.980469 106.648438 -3.363281 118.917969 -13.851562 C 111.398438 -10.683594 104.078125 -9.101562 95.964844 -9.101562 C 56.984375 -9.101562 23.546875 -44.519531 23.546875 -85.875 C 23.546875 -102.097656 29.285156 -116.148438 44.519531 -129.601562 C 47.289062 -129.996094 50.257812 -129.996094 53.027344 -129.996094 C 80.332031 -129.996094 102.097656 -114.367188 113.972656 -92.800781 C 116.542969 -98.734375 117.730469 -104.472656 117.730469 -109.421875 C 117.730469 -129.207031 99.722656 -139.890625 77.5625 -139.890625 C 38.386719 -139.890625 5.9375 -112.980469 5.9375 -73.011719 C 5.9375 -34.429688 34.429688 1.980469 71.230469 1.980469 Z M 71.230469 1.980469 "/></g></g></g><g fill="#ffffff" fill-opacity="1"><g transform="translate(598.293416, 450.534244)"><g><path d="M 71.429688 1.980469 C 112.785156 1.980469 142.464844 -24.929688 142.464844 -66.878906 C 142.464844 -105.066406 114.960938 -139.890625 76.179688 -139.890625 C 36.011719 -139.890625 6.132812 -113.179688 6.132812 -71.824219 C 6.132812 -33.242188 34.230469 1.980469 71.429688 1.980469 Z M 104.078125 -8.902344 C 59.558594 -5.738281 23.742188 -40.761719 23.742188 -84.488281 C 23.742188 -100.714844 29.480469 -116.542969 44.519531 -129.800781 C 47.488281 -130.195312 50.257812 -130.195312 53.027344 -130.195312 C 93.589844 -130.195312 124.0625 -95.964844 124.0625 -55.796875 C 124.0625 -39.574219 118.523438 -22.953125 104.078125 -8.902344 Z M 104.078125 -8.902344 "/></g></g></g><g fill="#ffffff" fill-opacity="1"><g transform="translate(746.890313, 450.534244)"><g><path d="M 54.808594 -26.316406 C 42.144531 -66.484375 28.492188 -110.011719 3.757812 -143.847656 C 8.707031 -97.945312 27.109375 -39.96875 54.808594 5.9375 C 82.511719 -39.96875 100.714844 -97.945312 105.660156 -143.847656 C 80.925781 -110.011719 67.273438 -66.484375 54.808594 -26.316406 Z M 54.808594 -26.316406 "/></g></g></g><g fill="#ffffff" fill-opacity="1"><g transform="translate(856.309855, 450.534244)"><g><path d="M 105.660156 5.9375 C 100.714844 -39.96875 82.511719 -97.945312 54.808594 -143.847656 C 27.109375 -97.945312 8.707031 -39.96875 3.757812 5.9375 C 17.808594 -13.257812 28.292969 -35.617188 37 -58.570312 C 51.839844 -29.285156 68.265625 -13.652344 105.660156 5.9375 Z M 54.808594 -111.792969 C 65.691406 -78.554688 78.949219 -43.136719 94.976562 -12.664062 L 93.988281 -11.871094 C 77.761719 -35.21875 63.515625 -50.058594 37.59375 -59.953125 C 43.925781 -77.167969 49.464844 -94.777344 54.808594 -111.792969 Z M 54.808594 -111.792969 "/></g></g></g><g fill="#ffffff" fill-opacity="1"><g transform="translate(490.062452, 540.255346)"><g><path d="M 10.46875 0 L 7.3125 0 L 0.078125 -18.140625 L 3.375 -18.140625 L 8.96875 -3.390625 L 14.609375 -18.140625 L 17.796875 -18.140625 Z M 10.46875 0 "/></g></g></g><g fill="#ffffff" fill-opacity="1"><g transform="translate(524.311749, 540.255346)"><g><path d="M 3.640625 -15.578125 C 5.492188 -17.335938 7.773438 -18.21875 10.484375 -18.21875 C 13.203125 -18.21875 15.484375 -17.335938 17.328125 -15.578125 C 19.179688 -13.828125 20.109375 -11.65625 20.109375 -9.0625 C 20.109375 -6.476562 19.179688 -4.300781 17.328125 -2.53125 C 15.484375 -0.757812 13.203125 0.125 10.484375 0.125 C 7.773438 0.125 5.492188 -0.757812 3.640625 -2.53125 C 1.796875 -4.300781 0.875 -6.476562 0.875 -9.0625 C 0.875 -11.65625 1.796875 -13.828125 3.640625 -15.578125 Z M 10.515625 -15.46875 C 8.722656 -15.46875 7.1875 -14.847656 5.90625 -13.609375 C 4.625 -12.378906 3.984375 -10.863281 3.984375 -9.0625 C 3.984375 -7.269531 4.625 -5.742188 5.90625 -4.484375 C 7.195312 -3.234375 8.734375 -2.609375 10.515625 -2.609375 C 12.296875 -2.609375 13.816406 -3.234375 15.078125 -4.484375 C 16.335938 -5.742188 16.96875 -7.269531 16.96875 -9.0625 C 16.96875 -10.863281 16.335938 -12.378906 15.078125 -13.609375 C 13.816406 -14.847656 12.296875 -15.46875 10.515625 -15.46875 Z M 10.515625 -15.46875 "/></g></g></g><g fill="#ffffff" fill-opacity="1"><g transform="translate(561.668982, 540.255346)"><g><path d="M 10.421875 -18.21875 C 11.691406 -18.21875 12.9375 -17.96875 14.15625 -17.46875 C 15.375 -16.976562 16.425781 -16.296875 17.3125 -15.421875 L 15.515625 -13.1875 C 14.859375 -13.894531 14.082031 -14.453125 13.1875 -14.859375 C 12.289062 -15.273438 11.382812 -15.484375 10.46875 -15.484375 C 8.65625 -15.484375 7.117188 -14.863281 5.859375 -13.625 C 4.609375 -12.394531 3.984375 -10.894531 3.984375 -9.125 C 3.984375 -7.320312 4.609375 -5.800781 5.859375 -4.5625 C 7.117188 -3.332031 8.65625 -2.71875 10.46875 -2.71875 C 12.351562 -2.71875 14.035156 -3.4375 15.515625 -4.875 L 17.328125 -2.84375 C 16.398438 -1.9375 15.3125 -1.210938 14.0625 -0.671875 C 12.820312 -0.140625 11.570312 0.125 10.3125 0.125 C 7.65625 0.125 5.414062 -0.757812 3.59375 -2.53125 C 1.78125 -4.300781 0.875 -6.488281 0.875 -9.09375 C 0.875 -11.664062 1.796875 -13.828125 3.640625 -15.578125 C 5.484375 -17.335938 7.742188 -18.21875 10.421875 -18.21875 Z M 10.421875 -18.21875 "/></g></g></g><g fill="#ffffff" fill-opacity="1"><g transform="translate(596.099566, 540.255346)"><g><path d="M 14.09375 -4.09375 L 4.953125 -4.09375 L 3.21875 0 L 0.03125 0 L 8.03125 -18.140625 L 11.171875 -18.140625 L 19.09375 0 L 15.828125 0 Z M 12.921875 -6.8125 L 9.5 -14.875 L 6.09375 -6.8125 Z M 12.921875 -6.8125 "/></g></g></g><g fill="#ffffff" fill-opacity="1"><g transform="translate(631.592037, 540.255346)"><g><path d="M 5.4375 -2.765625 L 13.296875 -2.765625 L 13.296875 0 L 2.390625 0 L 2.390625 -18.140625 L 5.4375 -18.140625 Z M 5.4375 -2.765625 "/></g></g></g><g fill="#ffffff" fill-opacity="1"><g transform="translate(661.801009, 540.255346)"><g/></g></g><g fill="#ffffff" fill-opacity="1"><g transform="translate(684.861706, 540.255346)"><g><path d="M 5.4375 0 L 2.390625 0 L 2.390625 -18.140625 L 5.4375 -18.140625 Z M 5.4375 0 "/></g></g></g><g fill="#ffffff" fill-opacity="1"><g transform="translate(709.06198, 540.255346)"><g><path d="M 18.109375 0 L 15.109375 0 L 5.4375 -13 L 5.4375 0 L 2.390625 0 L 2.390625 -18.140625 L 5.390625 -18.140625 L 15.109375 -5.109375 L 15.109375 -18.140625 L 18.109375 -18.140625 Z M 18.109375 0 "/></g></g></g><g fill="#ffffff" fill-opacity="1"><g transform="translate(745.953026, 540.255346)"><g><path d="M 8.34375 -18.265625 C 10.6875 -18.265625 12.800781 -17.644531 14.6875 -16.40625 L 13.421875 -13.703125 C 11.566406 -14.828125 9.796875 -15.390625 8.109375 -15.390625 C 7.191406 -15.390625 6.46875 -15.222656 5.9375 -14.890625 C 5.414062 -14.566406 5.15625 -14.101562 5.15625 -13.5 C 5.15625 -12.894531 5.394531 -12.378906 5.875 -11.953125 C 6.363281 -11.535156 6.96875 -11.222656 7.6875 -11.015625 C 8.414062 -10.816406 9.203125 -10.566406 10.046875 -10.265625 C 10.898438 -9.960938 11.6875 -9.644531 12.40625 -9.3125 C 13.132812 -8.976562 13.734375 -8.453125 14.203125 -7.734375 C 14.679688 -7.015625 14.921875 -6.144531 14.921875 -5.125 C 14.921875 -3.539062 14.285156 -2.269531 13.015625 -1.3125 C 11.742188 -0.363281 10.097656 0.109375 8.078125 0.109375 C 6.703125 0.109375 5.363281 -0.148438 4.0625 -0.671875 C 2.769531 -1.191406 1.640625 -1.890625 0.671875 -2.765625 L 2 -5.421875 C 2.914062 -4.566406 3.921875 -3.910156 5.015625 -3.453125 C 6.109375 -2.992188 7.148438 -2.765625 8.140625 -2.765625 C 9.203125 -2.765625 10.03125 -2.957031 10.625 -3.34375 C 11.226562 -3.738281 11.53125 -4.28125 11.53125 -4.96875 C 11.53125 -5.59375 11.285156 -6.113281 10.796875 -6.53125 C 10.316406 -6.957031 9.710938 -7.269531 8.984375 -7.46875 C 8.265625 -7.664062 7.476562 -7.90625 6.625 -8.1875 C 5.78125 -8.476562 4.992188 -8.78125 4.265625 -9.09375 C 3.546875 -9.414062 2.941406 -9.929688 2.453125 -10.640625 C 1.972656 -11.347656 1.734375 -12.207031 1.734375 -13.21875 C 1.734375 -14.75 2.335938 -15.972656 3.546875 -16.890625 C 4.753906 -17.804688 6.351562 -18.265625 8.34375 -18.265625 Z M 8.34375 -18.265625 "/></g></g></g><g fill="#ffffff" fill-opacity="1"><g transform="translate(778.441157, 540.255346)"><g><path d="M 14.765625 -15.390625 L 9.015625 -15.390625 L 9.015625 0 L 5.953125 0 L 5.953125 -15.390625 L 0.234375 -15.390625 L 0.234375 -18.140625 L 14.765625 -18.140625 Z M 14.765625 -15.390625 "/></g></g></g><g fill="#ffffff" fill-opacity="1"><g transform="translate(809.815611, 540.255346)"><g><path d="M 5.4375 0 L 2.390625 0 L 2.390625 -18.140625 L 5.4375 -18.140625 Z M 5.4375 0 "/></g></g></g><g fill="#ffffff" fill-opacity="1"><g transform="translate(834.01587, 540.255346)"><g><path d="M 14.765625 -15.390625 L 9.015625 -15.390625 L 9.015625 0 L 5.953125 0 L 5.953125 -15.390625 L 0.234375 -15.390625 L 0.234375 -18.140625 L 14.765625 -18.140625 Z M 14.765625 -15.390625 "/></g></g></g><g fill="#ffffff" fill-opacity="1"><g transform="translate(865.390292, 540.255346)"><g><path d="M 17.796875 -18.140625 L 17.796875 -7.515625 C 17.796875 -5.148438 17.09375 -3.285156 15.6875 -1.921875 C 14.289062 -0.554688 12.367188 0.125 9.921875 0.125 C 7.472656 0.125 5.539062 -0.554688 4.125 -1.921875 C 2.71875 -3.285156 2.015625 -5.148438 2.015625 -7.515625 L 2.015625 -18.140625 L 5.078125 -18.140625 L 5.078125 -7.515625 C 5.078125 -5.992188 5.507812 -4.796875 6.375 -3.921875 C 7.25 -3.046875 8.441406 -2.609375 9.953125 -2.609375 C 11.429688 -2.609375 12.597656 -3.039062 13.453125 -3.90625 C 14.304688 -4.769531 14.734375 -5.972656 14.734375 -7.515625 L 14.734375 -18.140625 Z M 17.796875 -18.140625 "/></g></g></g><g fill="#ffffff" fill-opacity="1"><g transform="translate(901.55614, 540.255346)"><g><path d="M 14.765625 -15.390625 L 9.015625 -15.390625 L 9.015625 0 L 5.953125 0 L 5.953125 -15.390625 L 0.234375 -15.390625 L 0.234375 -18.140625 L 14.765625 -18.140625 Z M 14.765625 -15.390625 "/></g></g></g><g fill="#ffffff" fill-opacity="1"><g transform="translate(932.930562, 540.255346)"><g><path d="M 15.34375 -15.390625 L 5.4375 -15.390625 L 5.4375 -10.484375 L 14.296875 -10.484375 L 14.296875 -7.75 L 5.4375 -7.75 L 5.4375 -2.75 L 15.640625 -2.75 L 15.640625 0 L 2.390625 0 L 2.390625 -18.140625 L 15.34375 -18.140625 Z M 15.34375 -15.390625 "/></g></g></g></svg>